<?xml version="1.0" encoding="UTF-8" standalone="no"?>
<svg
   xmlns:dc="http://purl.org/dc/elements/1.1/"
   xmlns:cc="http://creativecommons.org/ns#"
   xmlns:rdf="http://www.w3.org/1999/02/22-rdf-syntax-ns#"
   xmlns:svg="http://www.w3.org/2000/svg"
   xmlns="http://www.w3.org/2000/svg"
   xmlns:sodipodi="http://sodipodi.sourceforge.net/DTD/sodipodi-0.dtd"
   xmlns:inkscape="http://www.inkscape.org/namespaces/inkscape"
   class="svg-inline--fa fa-jack-o-lantern fa-w-18 fa-spin"
   aria-hidden="true"
   focusable="false"
   data-prefix="fas"
   data-icon="jack-o-lantern"
   role="img"
   viewBox="0 0 576 512"
   data-fa-i2svg=""
   version="1.1"
   id="svg22"
   sodipodi:docname="favicon.svg"
   inkscape:version="1.0.2 (e86c870879, 2021-01-15, custom)">
  <metadata
     id="metadata28">
    <rdf:RDF>
      <cc:Work
         rdf:about="">
        <dc:format>image/svg+xml</dc:format>
        <dc:type
           rdf:resource="http://purl.org/dc/dcmitype/StillImage" />
      </cc:Work>
    </rdf:RDF>
  </metadata>
  <defs
     id="defs26" />
  <sodipodi:namedview
     pagecolor="#ffffff"
     bordercolor="#666666"
     borderopacity="1"
     objecttolerance="10"
     gridtolerance="10"
     guidetolerance="10"
     inkscape:pageopacity="0"
     inkscape:pageshadow="2"
     inkscape:window-width="1920"
     inkscape:window-height="1027"
     id="namedview24"
     showgrid="false"
     inkscape:zoom="1.3164062"
     inkscape:cx="288"
     inkscape:cy="256"
     inkscape:window-x="1912"
     inkscape:window-y="829"
     inkscape:window-maximized="1"
     inkscape:current-layer="svg22" />
  <path
     fill="currentColor"
     d="M352 106.6V35.81c0-6.06-3.42-11.6-8.84-14.31l-39.6-19.8c-8.37-4.19-18.54-.32-22.01 8.37l-36.06 90.15C258.62 97.58 272.65 96 288 96c24.28 0 45.23 3.99 64 10.6zm143.3 46.53c-27-23.09-65.36-29.76-99.49-20.93 6.09 5.5 12.16 11.02 17.19 17.8 3.1 4.26 5.46 9.42 8.15 14.17C389.39 140.55 345.54 128 288 128s-101.39 12.54-133.15 36.17c2.69-4.75 5.04-9.91 8.15-14.17 5.02-6.78 11.1-12.29 17.19-17.8-34.13-8.83-72.49-2.16-99.49 20.93-107.6 92.01-107.6 241.72 0 333.74 38.63 33.03 100.82 33.34 140.12 1.25C238.65 503.51 260.72 512 288 512s49.35-8.49 67.19-23.88c39.3 32.09 101.49 31.78 140.12-1.25 107.59-92.01 107.59-241.73-.01-333.74zM320.85 278L362 211.33c2.33-4.57 8.6-4.42 12 0L415.15 278c1.66 3.25.9 10-6 10h-82.29c-6.9 0-7.7-6.69-6.01-10zm-160 0L202 211.33c2.33-4.57 8.6-4.42 12 0L255.15 278c1.66 3.25.9 10-6 10h-82.29c-6.9 0-7.7-6.69-6.01-10zm308.95 67.6c-5.96 17.04-12.75 28.62-18.7 36.96-9.38 12.94-21.34 23.8-35.19 32.99-.25-8.62-7.23-15.55-15.91-15.55h-16c-8.84 0-16 7.16-16 16v21.48c-23.46 6.88-50.16 10.52-79.98 10.52-29.85 0-56.56-3.65-80.02-10.51V416c0-8.84-7.16-16-16-16h-16c-8.7 0-15.71 6.97-15.92 15.63-13.71-9.08-25.53-19.79-34.75-32.51-6.12-8.59-13.02-20.31-19.04-37.46-4.87-13.89 10.56-26.15 23.24-18.67 32.94 19.44 70.39 32.74 110.47 38.84V384c0 8.84 7.16 16 16 16h16c8.84 0 16-7.16 16-16v-14.26h.02c58.38 0 112.72-15.74 158.54-42.79 12.66-7.48 28.09 4.77 23.24 18.65z"
     id="path20" />
  <path
     style="fill:#ff6600;stroke:#000000;stroke-width:0.759644"
     d="m 279.64392,511.15321 c -14.44858,-0.84589 -27.92873,-4.53871 -40.18719,-11.00909 -5.45307,-2.87829 -8.42881,-4.83501 -17.47576,-11.49132 -1.07871,-0.79366 -2.0582,-0.36636 -6.37616,2.7816 -10.39066,7.57518 -27.00408,14.73411 -41.5514,17.905 -3.38064,0.73689 -11.10293,1.41143 -18.9911,1.6589 -11.27186,0.35361 -14.68021,0.17939 -22.40949,-1.14553 C 104.4517,505.01867 83.418185,492.20035 58.536464,464.6845 -0.44409285,399.45989 -15.58821,314.35825 18.044607,237.14249 c 10.81015,-24.81845 25.702359,-46.62051 46.207309,-67.64708 22.256272,-22.82245 37.571374,-32.30083 61.099794,-37.81412 13.88833,-3.25437 36.41961,-3.30479 50.24964,-0.11244 l 3.52172,0.81292 -6.22412,5.9754 c -3.42327,3.28647 -7.65332,7.94093 -9.40014,10.34324 -3.69705,5.08441 -9.41938,15.38268 -8.54751,15.38268 0.32851,0 3.47898,-1.90763 7.00104,-4.23917 17.20855,-11.39174 41.6714,-21.00021 65.52235,-25.73574 21.94456,-4.35703 32.61307,-5.28936 60.52531,-5.28936 27.91224,0 38.58075,0.93233 60.52531,5.28936 23.7506,4.7156 48.66648,14.4932 65.52235,25.71254 3.52206,2.3443 6.67253,4.26237 7.00104,4.26237 0.87187,0 -4.85046,-10.29827 -8.54751,-15.38268 -1.74682,-2.40231 -5.97687,-7.05677 -9.40014,-10.34324 l -6.22412,-5.9754 3.52172,-0.81292 c 13.83003,-3.19235 36.36131,-3.14193 50.24964,0.11244 23.51997,5.51131 38.71033,14.91158 61.12048,37.82327 20.28954,20.74361 35.45647,42.96029 46.17522,67.63793 18.7915,43.26344 22.56776,88.39992 11.14256,133.18392 -8.7842,34.43195 -26.0759,66.08635 -51.45592,94.19585 -25.04139,27.73444 -45.90462,40.46595 -74.28345,45.33051 -7.72928,1.32492 -11.13763,1.49914 -22.40949,1.14553 -7.88817,-0.24747 -15.61046,-0.92201 -18.9911,-1.6589 -14.54732,-3.17089 -31.16074,-10.32982 -41.5514,-17.905 -4.31796,-3.14796 -5.29745,-3.57526 -6.37616,-2.7816 -9.03828,6.64993 -12.02319,8.61687 -17.47576,11.51584 -16.11802,8.56947 -35.20659,12.25457 -56.89935,10.98457 z m 45.57863,-64.82564 c 12.62627,-1.57645 24.3789,-3.7131 34.5638,-6.28377 l 8.35608,-2.10908 0.37983,-13.29377 c 0.41045,-14.36598 0.78526,-15.84011 5.05977,-19.90035 3.86533,-3.67157 6.86035,-4.40865 17.89505,-4.40402 5.54933,0.002 11.45704,0.37988 13.12826,0.839 4.17114,1.14591 9.21378,6.48069 10.33509,10.93386 0.47306,1.87868 1.14673,3.41578 1.49705,3.41578 1.78676,0 16.54556,-12.27406 23.94483,-19.91356 9.70047,-10.01544 16.01993,-19.10499 22.33265,-32.12205 9.9939,-20.60779 10.65389,-27.31927 3.37579,-34.3289 -6.01175,-5.78999 -12.59789,-6.33398 -20.9722,-1.73222 -11.97361,6.57962 -31.78672,16.11378 -41.1474,19.80035 -33.32164,13.12322 -67.67854,20.3783 -102.76178,21.70004 l -12.99834,0.48969 -0.40444,9.36486 c -0.36127,8.36539 -0.62024,9.7331 -2.42643,12.81514 -1.1121,1.89766 -3.43047,4.38269 -5.15193,5.5223 -3.10432,2.05505 -3.2371,2.07201 -16.22346,2.07201 h -13.09353 l -3.29538,-2.31266 c -1.81246,-1.27197 -4.14998,-3.83577 -5.1945,-5.69733 -1.74043,-3.10188 -1.92064,-4.31309 -2.15683,-14.49658 l -0.25772,-11.11191 -9.23783,-1.7112 c -34.50824,-6.39225 -65.36811,-17.61045 -99.13472,-36.03754 -6.85679,-3.74188 -9.88751,-4.23195 -15.60547,-2.52347 -4.38203,1.30932 -9.03648,6.17266 -10.33038,10.79399 -1.38671,4.95285 -0.5069,8.90341 4.66465,20.94549 9.59535,22.34298 22.5255,38.87575 41.65734,53.26399 l 7.97291,5.99609 0.89911,-3.52452 c 1.04776,-4.10724 4.26588,-8.39011 7.92402,-10.54578 2.18557,-1.2879 4.25007,-1.55955 13.55589,-1.78367 12.44167,-0.29966 15.43734,0.29833 19.53993,3.90044 4.84237,4.25166 5.52985,6.8388 5.5488,20.88126 0.0195,14.48541 -1.68089,12.49856 13.69533,16.00201 11.19988,2.55188 27.76943,5.08802 40.25607,6.16162 11.91099,1.02409 52.50237,0.34628 63.81009,-1.06554 z M 254.13507,286.44325 c 1.46072,-1.37258 1.95989,-2.6006 1.95989,-4.82166 0,-2.57378 -2.87384,-7.64237 -21.08012,-37.17896 -11.59407,-18.80941 -21.90783,-34.7494 -22.91947,-35.42221 -2.30272,-1.53144 -7.27295,-1.58885 -8.75241,-0.10108 -0.61376,0.61721 -10.72579,16.67591 -22.47118,35.686 -20.01992,32.40254 -21.33229,34.74561 -20.98798,37.47143 0.41416,3.2789 2.14779,5.58532 4.56348,6.07127 0.89643,0.18032 21.00192,0.28488 44.67888,0.23234 l 43.04901,-0.0955 z m 160.00252,0.2439 c 0.87849,-0.87875 1.76663,-2.92979 1.97365,-4.55787 0.35529,-2.79404 -0.78127,-4.83563 -20.25525,-36.38447 -11.34741,-18.38339 -21.62566,-34.44208 -22.84057,-35.686 -2.97922,-3.05037 -7.64661,-3.19872 -10.12132,-0.3217 -0.91778,1.06698 -10.96577,17.00906 -22.32888,35.42684 -17.82435,28.89046 -20.66018,33.89529 -20.66018,36.46229 0,2.95595 1.75031,5.45756 4.55787,6.51432 0.6267,0.23589 20.70051,0.36485 44.60845,0.2866 43.07377,-0.141 43.4835,-0.15682 45.06623,-1.74001 z"
     id="path30" />
  <path
     style="fill:#008000;stroke:#000000;stroke-width:0.759644"
     d="m 346.49258,104.38153 c -6.46793,-2.0952 -21.66366,-5.566897 -29.62611,-6.768555 -17.46324,-2.635479 -45.40972,-2.275483 -63.32833,0.815774 -3.70417,0.639027 -6.8343,1.059027 -6.95583,0.933329 -0.27802,-0.287548 34.64139,-87.530489 36.27357,-90.626173 2.60774,-4.9460075 7.87287,-8.04872131 13.73721,-8.09526272 3.58167,-0.0284251 5.95407,0.97443912 26.01755,10.99818172 23.71833,11.849709 26.69948,13.952592 28.38502,20.022543 1.24048,4.467264 1.11341,73.945133 -0.13513,73.878313 -0.52225,-0.028 -2.48783,-0.54911 -4.36795,-1.15815 z"
     id="path32" />
</svg>
